# xmcd CD database file
#
# Track frame offsets:
#	183
#	19653
#	38188
#	60575
#	79410
#	98825
#	149008
#	163748
#	191358
#	215845
#
# Disc length: 3305 seconds
#
# Revision: 0
# Processed by: cddbd v1.4PL0 Copyright (c) Steve Scherf et al.
# Submitted via: Feurio! 1.65 - http://www.feurio.com
#
DISCID=8e0ce70a
DTITLE=Nighthawks - Live In Europe
DYEAR=1987
DGENRE=blues
TTITLE0=Intro - If You Love Me
TTITLE1=Back To The City
TTITLE2=Mighty Long Time
TTITLE3=Nothin' But You
TTITLE4=Save That Dress
TTITLE5=Black Night
TTITLE6=Hard Headed Woman
TTITLE7=I Can Tell
TTITLE8=Yeah Man
TTITLE9=Lickin' Gravy
EXTD=
EXTT0=
EXTT1=
EXTT2=
EXTT3=
EXTT4=
EXTT5=
EXTT6=
EXTT7=
EXTT8=
EXTT9=
PLAYORDER=
